<svg height="30" width="30" xmlns="http://www.w3.org/2000/svg"><path d="M17.5 15c-.797 0-1.456.314-1.88.793-.424.48-.62 1.098-.62 1.707 0 .78-.568 1.418-.81 1.607a.5.5 0 0 0 .31.893H17c.786 0 1.517-.23 2.072-.662.555-.432.928-1.09.928-1.838 0-.683-.193-1.32-.63-1.785-.44-.465-1.097-.715-1.87-.715zm0 1c.57 0 .914.16 1.14.4.227.24.36.602.36 1.1 0 .432-.19.776-.54 1.05-.353.272-.872.45-1.46.45h-1.423c.237-.4.422-.9.422-1.5 0-.39.13-.772.368-1.043.24-.27.583-.457 1.132-.457zM29.284 5.01a1.583 1.583 0 0 0-.352.09c-.238.08-.513.21-.838.374-.65.33-1.477.813-2.35 1.365-1.75 1.103-3.66 2.457-4.642 3.438-.935.934-1.616 1.784-1.936 2.637-.32.852-.186 1.777.478 2.44.665.665 1.59.8 2.442.48.853-.32 1.703-1.002 2.637-1.936.98-.983 2.335-2.893 3.44-4.64a31.362 31.362 0 0 0 1.365-2.353c.165-.324.293-.6.375-.838.04-.12.072-.226.086-.352.013-.126.047-.327-.167-.54-.214-.215-.413-.18-.54-.167zm-.647 1.444c-.307.603-.78 1.416-1.32 2.27-1.08 1.713-2.46 3.628-3.3 4.468-.888.887-1.678 1.48-2.283 1.707-.604.225-.954.177-1.383-.25-.427-.43-.475-.78-.25-1.384.228-.604.82-1.394 1.71-2.28.84-.84 2.754-2.22 4.466-3.3a29.892 29.892 0 0 1 2.272-1.322c.134-.036.13.022.09.09zM2.5 8h17a.499.499 0 1 1 0 1h-17a.499.499 0 1 1 0-1zM7 6.5a.5.5 0 1 1-1 0 .5.5 0 0 1 1 0zm-2 0a.5.5 0 1 1-1 0 .5.5 0 0 1 1 0zm-2 0a.5.5 0 1 1-1 0 .5.5 0 0 1 1 0zM1.5 4C.678 4 0 4.678 0 5.5v19c0 .822.678 1.5 1.5 1.5h25c.822 0 1.5-.678 1.5-1.5v-12c0-.668-1-.665-1 0v12c0 .286-.214.5-.5.5h-25a.488.488 0 0 1-.5-.5v-19c0-.286.214-.5.5-.5h25c.665 0 .657-1 0-1z"/></svg>