<?xml version="1.0" encoding="utf-8"?><svg viewBox="0 0 512 512" xmlns="http://www.w3.org/2000/svg" xmlns:xlink="http://www.w3.org/1999/xlink"><style>:root>svg{display:none}:root>svg:target{display:block}</style><svg viewBox="0 0 512 512" id="inst-min" xmlns="http://www.w3.org/2000/svg"><path d="M505 257c0 34.8-.7 69.7.2 104.5 1.5 61.6-37.2 109.2-86.5 130.4-19.8 8.5-40.6 13-62.1 13-67.3.1-134.7 1-202-.3-50.7-1-92.4-22.2-122.3-64-15.7-22-23.2-47-23.2-74.1v-215c0-58.5 28.5-99.4 79.1-126C110.2 14 134.1 9.1 159 9c65.3 0 130.7-.4 196 .2 50.7.4 93 19.8 124.2 60.6 17.4 22.8 25.8 49 25.8 77.8V257zm-459 0v110c0 16.4 3.8 31.8 12.3 45.7 22.3 36.5 56 54.3 97.8 55 67.1 1 134.3.4 201.5.2 16.5 0 32.5-3.4 47.4-10.5 40.6-19.4 63.3-50.3 63.1-96.7-.4-71-.1-142-.1-213 0-20.1-5.7-38.5-17.6-54.7-23-31.1-54.8-46.4-92.8-46.8-67-.8-134-.3-201-.2-14.3 0-28.1 2.9-41.5 7.9-36.8 13.7-71 48.4-69.4 99.5 1.2 34.6.3 69.1.3 103.6z"/><path d="M257.6 363c-64.5 0-116.5-51.4-116.6-115.4-.1-63 52.3-114.6 116.4-114.6 64.3-.1 116.5 51.4 116.6 114.9 0 63.4-52.1 115-116.4 115.1zm0-37c43.9 0 79.5-35.1 79.4-78.3-.1-42.8-35.7-77.8-79.4-77.8-43.9 0-79.7 34.9-79.7 78 .1 43.2 35.8 78.2 79.7 78.1zM387.5 98c13.5 0 24.5 11.5 24.5 25.6-.1 14.1-11.2 25.5-24.7 25.4-13.3-.1-24.2-11.5-24.2-25.3C363 109.6 374 98 387.5 98z"/></svg><svg fill="none" viewBox="0 0 24 24" id="tg-min" xmlns="http://www.w3.org/2000/svg"><path d="M8.25 12.644l8.43 7.418a.749.749 0 001.226-.395L21.433 4.28a.75.75 0 00-1.006-.866L3.125 10.211a.75.75 0 00.127 1.434l4.998 1zm0 0l12.76-9.216" stroke="#d2d91e" stroke-linecap="round" stroke-linejoin="round"/><path d="M12.46 16.35l-2.93 2.929a.75.75 0 01-1.28-.53v-6.105" stroke="#d2d91e" stroke-linecap="round" stroke-linejoin="round"/></svg><svg viewBox="0 0 32 32" id="viber-min" xmlns="http://www.w3.org/2000/svg"><path d="M15.198.005C12.63.036 7.109.458 4.021 3.291 1.724 5.567.922 8.932.828 13.093.75 17.239.656 25.025 8.161 27.145v3.229s-.047 1.292.807 1.557c1.052.333 1.651-.661 2.651-1.729l1.865-2.109c5.135.427 9.068-.557 9.521-.703 1.042-.333 6.911-1.083 7.87-8.87.984-8.042-.479-13.109-3.12-15.401h-.016c-.797-.734-4-3.068-11.156-3.094 0 0-.531-.036-1.385-.021zm.088 2.261c.729-.005 1.172.026 1.172.026 6.057.016 8.948 1.839 9.63 2.453 2.224 1.906 3.37 6.474 2.531 13.188-.797 6.51-5.557 6.922-6.438 7.203-.375.12-3.839.974-8.203.693 0 0-3.25 3.922-4.266 4.932-.161.177-.349.229-.469.203-.172-.042-.224-.255-.214-.547l.031-5.359c-6.365-1.76-5.99-8.401-5.922-11.87.078-3.469.729-6.307 2.667-8.229 2.609-2.359 7.297-2.677 9.479-2.693zm.48 3.468a.397.397 0 00-.401.396c0 .224.182.401.401.401a7.513 7.513 0 015.375 2.12c1.453 1.411 2.161 3.307 2.188 5.786 0 .219.177.401.401.401v-.016a.4.4 0 00.401-.396 8.614 8.614 0 00-2.417-6.349c-1.583-1.547-3.589-2.344-5.948-2.344zm-5.271.917a1.252 1.252 0 00-.818.161h-.021A6.276 6.276 0 008.13 8.067c-.365.422-.563.849-.615 1.26-.031.245-.01.49.063.724l.026.016c.411 1.208.948 2.37 1.604 3.464a20.376 20.376 0 003.094 4.229l.036.052.057.042.036.042.042.036a20.67 20.67 0 004.24 3.109c1.76.958 2.828 1.411 3.469 1.599v.01c.188.057.359.083.531.083a2.452 2.452 0 001.469-.63 6.064 6.064 0 001.24-1.531v-.01c.307-.578.203-1.125-.24-1.495a18.467 18.467 0 00-2.865-2.057c-.682-.37-1.375-.146-1.656.229l-.599.755c-.307.375-.865.323-.865.323l-.016.01c-4.161-1.063-5.271-5.276-5.271-5.276s-.052-.573.333-.865l.75-.604c.359-.292.609-.984.224-1.667a17.992 17.992 0 00-2.052-2.865 1.14 1.14 0 00-.672-.401zm5.963 1.188c-.531 0-.531.802.005.802a5.026 5.026 0 013.531 1.531 4.66 4.66 0 011.198 3.427.403.403 0 00.401.396l.016.021a.404.404 0 00.401-.401c.036-1.589-.458-2.922-1.427-3.99-.974-1.068-2.333-1.667-4.068-1.786h-.057zm.657 2.156c-.547-.016-.568.802-.026.818 1.318.068 1.958.734 2.042 2.104a.398.398 0 00.396.391h.016a.403.403 0 00.385-.427c-.094-1.786-1.068-2.792-2.797-2.885h-.016z"/></svg></svg>